#!OML:ASF F:\VICON\USERDATA\INSTALL\rory3\rory3.ASF
:FULLY-SPECIFIED
:DEGREES
343
root 2.41806 17.7769 14.8601 156.923 -82.6539 -155.992
lowerback 11.1979 2.77409 2.34356
upperback 1.09432 3.95065 0.558536
thorax -5.00501 1.88102 -1.33176
lowerneck -19.9122 -7.35919 -12.4437
upperneck 26.5326 -10.2679 11.138
head 13.5638 -4.50065 4.60478
rclavicle 4.04713e-015 -5.08143e-015
rhumerus -29.0638 -7.66592 -84.4773
rradius 35.4762
rwrist 3.12246
rhand -16.1822 10.7931
rfingers 7.12502
rthumb 10.0244 -18.9482
lclavicle 4.04713e-015 -5.08143e-015
lhumerus -38.0378 3.49066 84.2506
lradius 32.111
lwrist -4.35484
lhand -16.262 24.2029
lfingers 7.12502
lthumb 9.94741 53.9479
rfemur 5.37373 2.44808 28.9205
rtibia 19.2092
rfoot -17.9784 -4.19668
rtoes 18.0558
lfemur -22.9073 -4.17556 -11.4012
ltibia 15.7058
lfoot -6.03343 5.93511
ltoes -20.9233
344
root 2.28798 17.7611 14.8704 158.115 -82.3181 -156.903
lowerback 10.8375 2.83526 2.33481
upperback 1.0132 4.02657 0.559177
thorax -4.88751 1.92238 -1.31961
lowerneck -20.035 -7.29153 -12.4881
upperneck 26.5802 -10.145 11.1497
head 13.5945 -4.44576 4.64132
rclavicle 5.58709e-014 1.22501e-014
rhumerus -28.9689 -7.22768 -84.6369
rradius 35.6085
rwrist 2.94027
rhand -16.4045 10.7501
rfingers 7.12502
rthumb 9.80993 -19.0014
lclavicle 5.58709e-014 1.22501e-014
lhumerus -38.1736 4.85017 83.6799
lradius 31.7088
lwrist -5.69972
lhand -15.9619 23.8965
lfingers 7.12502
lthumb 10.2369 53.6274
rfemur 5.73596 2.68628 28.8663
rtibia 18.8625
rfoot -17.9732 -4.26598
rtoes 16.631
lfemur -23.1912 -4.54752 -11.1496
ltibia 14.2792
lfoot -5.99242 6.77
ltoes -22.7736
345
root 2.15551 17.7432 14.8842 159.08 -82.1104 -157.704
lowerback 10.6076 2.89789 2.3601
upperback 0.945345 4.10864 0.515441
thorax -4.8226 1.9643 -1.37979
lowerneck -20.0689 -7.2638 -12.4787
upperneck 26.5214 -10.1038 11.1823
head 13.5723 -4.42087 4.65881
rclavicle -5.68493e-014 -7.15625e-015
rhumerus -28.9133 -7.2082 -84.7091
rradius 35.7155
rwrist 2.90859
rhand -16.4189 10.679
rfingers 7.12502
rthumb 9.79605 -19.0731
lclavicle -5.68493e-014 -7.15625e-015
lhumerus -38.2371 5.6165 83.274
lradius 31.2484
lwrist -6.54297
lhand -16.6709 23.9346
lfingers 7.12502
lthumb 9.55286 53.6981
rfemur 6.23838 3.1019 28.8359
rtibia 18.5113
rfoot -17.9726 -4.63733
rtoes 15.4328
lfemur -23.3837 -5.36665 -10.8842
ltibia 13.0942
lfoot -5.8422 8.00055
ltoes -24.7819
346
root 2.02188 17.73 14.8977 160.142 -81.9832 -158.79
lowerback 10.5648 2.91956 2.30452
upperback 0.937704 4.12943 0.494748
thorax -4.80841 1.97603 -1.37101
lowerneck -20.1941 -7.28713 -12.4368
upperneck 26.5225 -10.094 11.0658
head 13.5869 -4.4207 4.60387
rclavicle -2.69974e-014 6.00081e-015
rhumerus -28.7964 -7.20448 -84.7541
rradius 35.7448
rwrist 2.92941
rhand -16.3325 10.6415
rfingers 7.12502
rthumb 9.87936 -19.1067
lclavicle -2.69974e-014 6.00081e-015
lhumerus -38.3413 5.93121 83.1099
lradius 30.8647
lwrist -6.74288
lhand -17.1846 24.1345
lfingers 7.12502
lthumb 9.05722 53.92
rfemur 6.92978 3.4349 28.7251
rtibia 18.185
rfoot -17.9766 -5.00648
rtoes 14.4584
lfemur -23.3571 -6.70865 -10.5406
ltibia 12.1655
lfoot -5.85722 9.48713
ltoes -25.0325
347
root 1.88871 17.7196 14.9116 160.303 -81.8864 -158.999
lowerback 10.5711 2.89044 2.37721
upperback 0.927879 4.10056 0.512597
thorax -4.81947 1.96018 -1.38964
lowerneck -20.274 -7.29687 -12.5625
upperneck 26.4973 -10.061 11.1069
head 13.5991 -4.41015 4.64667
rclavicle 9.78549e-015 -4.88265e-015
rhumerus -28.6809 -7.14826 -84.7914
rradius 35.6879
rwrist 3.26195
rhand -16.3712 10.6531
rfingers 7.12502
rthumb 9.84208 -19.0968
lclavicle 9.78549e-015 -4.88265e-015
lhumerus -38.4813 6.34573 82.9834
lradius 30.5085
lwrist -6.76998
lhand -16.3767 23.9004
lfingers 7.12502
lthumb 9.83671 53.6507
rfemur 7.63345 3.39576 28.6424
rtibia 17.8584
rfoot -17.9905 -5.07624
rtoes 13.4252
lfemur -23.3189 -7.42728 -10.3103
ltibia 11.5115
lfoot -5.80883 10.2509
ltoes -25.2215
348
root 1.75782 17.7033 14.9279 159.39 -81.86 -158.185
lowerback 10.6699 2.84963 2.59783
upperback 0.929651 4.07444 0.516917
thorax -4.85858 1.94152 -1.51001
lowerneck -20.2817 -7.33401 -12.5456
upperneck 26.3682 -10.1386 11.215
head 13.5651 -4.42757 4.66813
rclavicle 8.16228e-014 3.72721e-017
rhumerus -28.5612 -7.14018 -84.8624
rradius 35.6281
rwrist 3.2724
rhand -16.2089 10.711
rfingers 7.12502
rthumb 9.99865 -19.0315
lclavicle 8.16228e-014 3.72721e-017
lhumerus -38.586 6.70444 82.8017
lradius 30.168
lwrist -6.85325
lhand -15.7979 23.6517
lfingers 7.12502
lthumb 10.3951 53.3748
rfemur 8.3461 2.92082 28.5746
rtibia 17.5462
rfoot -18.0176 -4.76231
rtoes 12.3651
lfemur -23.2516 -7.0629 -10.4043
ltibia 11.1176
lfoot -5.37911 9.81698
ltoes -26.3089
349
root 1.62848 17.6867 14.9456 158.74 -81.8757 -157.54
lowerback 10.6873 2.81183 2.77449
upperback 0.913687 4.04525 0.498477
thorax -4.87262 1.92293 -1.62502
lowerneck -20.3335 -7.35372 -12.3278
upperneck 26.2617 -10.2082 11.1733
head 13.5252 -4.43796 4.59557
rclavicle -2.59103e-014 -3.65267e-015
rhumerus -28.457 -7.24783 -84.9075
rradius 35.5914
rwrist 3.13417
rhand -16.0761 10.8433
rfingers 7.12502
rthumb 10.1267 -18.893
lclavicle -2.59103e-014 -3.65267e-015
lhumerus -38.6434 7.05024 82.5519
lradius 29.7868
lwrist -7.06481
lhand -15.8393 23.4191
lfingers 7.12502
lthumb 10.3551 53.1441
rfemur 8.91862 2.48913 28.4172
rtibia 17.2753
rfoot -18.062 -4.25708
rtoes 12.5219
lfemur -23.3183 -6.0653 -10.7896
ltibia 10.9976
lfoot -4.94031 8.7534
ltoes -26.4808
350
root 1.49985 17.6731 14.9632 158.18 -81.9032 -156.897
lowerback 10.6462 2.79757 2.91853
upperback 0.847739 4.04636 0.521344
thorax -4.9106 1.91995 -1.68158
lowerneck -20.3701 -7.36953 -12.3296
upperneck 26.242 -10.2182 11.1618
head 13.5255 -4.44189 4.58796
rclavicle -6.60788e-014 9.44227e-016
rhumerus -28.4658 -7.27604 -84.8516
rradius 35.5804
rwrist 3.17439
rhand -16.1551 10.9638
rfingers 7.12502
rthumb 10.0505 -18.7762
lclavicle -6.60788e-014 9.44227e-016
lhumerus -38.7152 7.32029 82.423
lradius 29.4231
lwrist -7.09491
lhand -15.8984 23.4009
lfingers 7.12502
lthumb 10.2981 53.1288
rfemur 9.4102 2.70641 28.4285
rtibia 17.0421
rfoot -18.0316 -4.20988
rtoes 13.6068
lfemur -23.5176 -4.96286 -11.2238
ltibia 11.1765
lfoot -4.67931 7.58633
ltoes -25.3028
351
root 1.36797 17.6549 14.9787 158.185 -81.894 -156.955
lowerback 10.7206 2.80999 2.90531
upperback 0.822119 4.06748 0.57755
thorax -4.98315 1.92924 -1.62402
lowerneck -20.4428 -7.42864 -12.5755
upperneck 26.2504 -10.2361 11.2491
head 13.5693 -4.46007 4.66112
rclavicle 7.45287e-015 7.66563e-015
rhumerus -28.5078 -7.05414 -84.7701
rradius 35.6048
rwrist 3.02066
rhand -16.2719 10.8056
rfingers 7.12502
rthumb 9.9378 -18.9398
lclavicle 7.45287e-015 7.66563e-015
lhumerus -38.7692 7.88041 82.2229
lradius 29.0115
lwrist -7.42826
lhand -15.8762 23.4147
lfingers 7.12502
lthumb 10.3196 53.1415
rfemur 10.0469 3.25277 28.4901
rtibia 16.9041
rfoot -17.9494 -4.63092
rtoes 13.4441
lfemur -23.5342 -4.07005 -11.6818
ltibia 11.4844
lfoot -4.43846 6.66846
ltoes -23.8927
352
root 1.23101 17.6335 14.9927 157.515 -81.7628 -156.445
lowerback 10.8599 2.83804 2.95035
upperback 0.816076 4.1197 0.687287
thorax -5.06993 1.95226 -1.55073
lowerneck -20.4075 -7.479 -12.7617
upperneck 26.2042 -10.2624 11.3114
head 13.5632 -4.48316 4.71204
rclavicle 3.68683e-015 -3.00662e-015
rhumerus -28.5874 -7.18758 -84.6029
rradius 35.5757
rwrist 3.19584
rhand -16.267 10.7581
rfingers 7.12502
rthumb 9.94261 -18.9871
lclavicle 3.68683e-015 -3.00662e-015
lhumerus -38.8741 8.4416 82.0252
lradius 28.6035
lwrist -7.90763
lhand -15.6486 23.5619
lfingers 7.12502
lthumb 10.5392 53.2776
rfemur 10.7685 3.42198 28.5851
rtibia 16.8332
rfoot -17.7497 -4.86602
rtoes 11.1135
lfemur -23.4219 -3.31374 -11.9589
ltibia 11.9368
lfoot -4.07671 5.85451
ltoes -23.4496
353
root 1.09187 17.6165 15.0099 156.797 -81.6276 -155.845
lowerback 10.9241 2.83991 3.03988
upperback 0.819207 4.13951 0.79118
thorax -5.10315 1.95958 -1.49894
lowerneck -20.3751 -7.47806 -12.8062
upperneck 26.123 -10.2259 11.2798
head 13.5174 -4.47549 4.71187
rclavicle 5.42247e-014 8.05078e-015
rhumerus -28.6544 -7.63986 -84.3977
rradius 35.4889
rwrist 3.69291
rhand -16.1682 10.9782
rfingers 7.12502
rthumb 10.0379 -18.7624
lclavicle 5.42247e-014 8.05078e-015
lhumerus -38.9685 8.99259 81.874
lradius 28.1626
lwrist -8.39582
lhand -16.1417 23.8054
lfingers 7.12502
lthumb 10.0635 53.5448
rfemur 11.4144 3.43713 28.6117
rtibia 16.7715
rfoot -17.4997 -4.91287
rtoes 9.08112
lfemur -23.4232 -2.93832 -12.129
ltibia 12.5814
lfoot -3.73581 5.20408
ltoes -23.7071
354
root 0.948233 17.6041 15.0297 156.499 -81.4415 -155.708
lowerback 10.9795 2.84536 3.21475
upperback 0.864472 4.16747 0.804038
thorax -5.07373 1.96971 -1.58847
lowerneck -20.4313 -7.44009 -12.8144
upperneck 26.0418 -10.1766 11.3707
head 13.4947 -4.44075 4.7568
rclavicle -2.34659e-014 -1.98785e-016
rhumerus -28.7091 -7.94639 -84.3792
rradius 35.4556
rwrist 3.683
rhand -16.1375 11.011
rfingers 7.12502
rthumb 10.0675 -18.7282
lclavicle -2.34659e-014 -1.98785e-016
lhumerus -38.9755 9.30758 81.6981
lradius 27.7741
lwrist -8.39176
lhand -17.083 24.0197
lfingers 7.12502
lthumb 9.15527 53.801
rfemur 12.0728 3.3838 28.5282
rtibia 16.7298
rfoot -17.2345 -4.7363
rtoes 7.66728
lfemur -23.3493 -2.91634 -12.2381
ltibia 13.3354
lfoot -3.52298 4.67834
ltoes -23.2588
355
root 0.798809 17.5974 15.0525 157.256 -81.2414 -156.611
lowerback 10.9331 2.90017 3.32643
upperback 0.923511 4.24434 0.711845
thorax -4.96687 2.0071 -1.75251
lowerneck -20.5011 -7.42831 -12.8205
upperneck 26.0131 -10.218 11.5886
head 13.5197 -4.43102 4.83681
rclavicle -5.4262e-015 -1.79652e-014
rhumerus -28.769 -8.14243 -84.4644
rradius 35.3645
rwrist 3.35907
rhand -16.6261 11.0448
rfingers 7.12502
rthumb 9.59608 -18.7166
lclavicle -5.4262e-015 -1.79652e-014
lhumerus -38.9253 9.45071 81.4622
lradius 27.4228
lwrist -8.21816
lhand -17.2734 24.0497
lfingers 7.12502
lthumb 8.97154 53.839
rfemur 12.7142 3.42923 28.2815
rtibia 16.7507
rfoot -16.9569 -4.48555
rtoes 6.55837
lfemur -23.1936 -2.98492 -12.4379
ltibia 14.0837
lfoot -3.1189 3.98887
ltoes -20.356
